<svg width="164" height="46" viewBox="0 0 164 46" fill="none" xmlns="http://www.w3.org/2000/svg">
<path d="M162.601 40.6948C162.601 43.1461 160.52 45.1318 157.945 45.1318H5.57993C3.00668 45.1318 0.917969 43.1461 0.917969 40.6948V5.31054C0.917969 2.8603 3.00668 0.867676 5.57993 0.867676H157.944C160.52 0.867676 162.6 2.8603 162.6 5.31054L162.601 40.6948Z" fill="black"/>
<path d="M157.444 0.921438C160.248 0.921438 162.53 3.08775 162.53 5.75V40.25C162.53 42.9123 160.248 45.0786 157.444 45.0786H6.05556C3.25183 45.0786 0.970402 42.9123 0.970402 40.25V5.75C0.970402 3.08775 3.25183 0.921438 6.05556 0.921438H157.444ZM157.444 2.43107e-06H6.05556C2.72651 2.43107e-06 0 2.58894 0 5.75V40.25C0 43.4111 2.72651 46 6.05556 46H157.444C160.773 46 163.5 43.4111 163.5 40.25V5.75C163.5 2.58894 160.773 2.43107e-06 157.444 2.43107e-06Z" fill="#A6A6A6"/>
<path d="M36.4837 22.7515C36.4486 19.045 39.6799 17.2418 39.8276 17.1579C37.9976 14.6244 35.1612 14.2783 34.1645 14.2507C31.7822 14.0126 29.4714 15.6042 28.2579 15.6042C27.0201 15.6042 25.1514 14.2737 23.1373 14.3128C20.5455 14.3507 18.1209 15.7756 16.7911 17.9882C14.0467 22.4996 16.0935 29.1294 18.7228 32.776C20.0381 34.562 21.575 36.5561 23.5866 36.4859C25.5547 36.4089 26.2898 35.2945 28.6648 35.2945C31.018 35.2945 31.7083 36.4859 33.7599 36.4411C35.8721 36.4089 37.2019 34.6471 38.4712 32.845C39.9911 30.798 40.6015 28.7821 40.6257 28.6786C40.5761 28.6625 36.5237 27.1939 36.4837 22.7515Z" fill="white"/>
<path d="M32.6082 11.8518C33.6667 10.5948 34.3909 8.88476 34.1899 7.14941C32.6578 7.21381 30.7419 8.15566 29.6385 9.38501C28.6624 10.4683 27.7904 12.2439 28.0156 13.9137C29.7366 14.0356 31.5036 13.0892 32.6082 11.8518Z" fill="white"/>
<path d="M64.9799 36.2295H62.2294L60.7228 31.7341H55.486L54.0508 36.2295H51.373L56.5614 20.9253H59.766L64.9799 36.2295ZM60.2687 29.8481L58.9062 25.8519C58.762 25.4436 58.492 24.4822 58.0935 22.9688H58.0451C57.8864 23.6197 57.6309 24.5811 57.2796 25.8519L55.9414 29.8481H60.2687V29.8481Z" fill="white"/>
<path d="M78.3323 30.5763C78.3323 32.4531 77.7982 33.9366 76.73 35.0257C75.7732 35.9951 74.5851 36.4793 73.1669 36.4793C71.636 36.4793 70.5363 35.9572 69.8666 34.913H69.8181V40.7262H67.2361V28.8272C67.2361 27.6473 67.2034 26.4363 67.1404 25.1943H69.4112L69.5553 26.9435H69.6038C70.4649 25.6256 71.7717 24.9678 73.5254 24.9678C74.8963 24.9678 76.0408 25.4818 76.9564 26.5111C77.8745 27.5415 78.3323 28.8962 78.3323 30.5763ZM75.7017 30.666C75.7017 29.5919 75.4474 28.7064 74.9363 28.0095C74.378 27.2827 73.6283 26.9193 72.6885 26.9193C72.0514 26.9193 71.4725 27.1217 70.9554 27.5208C70.437 27.9233 70.0979 28.4488 69.9393 29.0997C69.8593 29.4033 69.8194 29.6517 69.8194 29.8472V31.6872C69.8194 32.4899 70.0785 33.1673 70.5969 33.7204C71.1152 34.2736 71.7886 34.5496 72.617 34.5496C73.5895 34.5496 74.3465 34.1931 74.8879 33.4824C75.4304 32.7705 75.7017 31.8321 75.7017 30.666Z" fill="white"/>
<path d="M91.6633 30.5763C91.6633 32.4531 91.1292 33.9366 90.0598 35.0257C89.1042 35.9951 87.9161 36.4793 86.4979 36.4793C84.9671 36.4793 83.8674 35.9572 83.1989 34.913H83.1504V40.7262H80.5683V28.8272C80.5683 27.6473 80.5356 26.4363 80.4727 25.1943H82.7435L82.8876 26.9435H82.9361C83.7959 25.6256 85.1027 24.9678 86.8576 24.9678C88.2274 24.9678 89.3719 25.4818 90.2899 26.5111C91.2043 27.5415 91.6633 28.8962 91.6633 30.5763ZM89.0328 30.666C89.0328 29.5919 88.7772 28.7064 88.2662 28.0095C87.7078 27.2827 86.9606 26.9193 86.0195 26.9193C85.3813 26.9193 84.8036 27.1217 84.2852 27.5208C83.7669 27.9233 83.429 28.4488 83.2703 29.0997C83.1916 29.4033 83.1504 29.6517 83.1504 29.8472V31.6872C83.1504 32.4899 83.4096 33.1673 83.9255 33.7204C84.4439 34.2724 85.1173 34.5496 85.9481 34.5496C86.9206 34.5496 87.6776 34.1931 88.2189 33.4824C88.7615 32.7705 89.0328 31.8321 89.0328 30.666Z" fill="white"/>
<path d="M106.638 31.9378C106.638 33.2396 106.162 34.2988 105.207 35.1164C104.157 36.01 102.695 36.4562 100.816 36.4562C99.082 36.4562 97.6916 36.1388 96.6392 35.5028L97.2375 33.4593C98.3711 34.1102 99.6149 34.4368 100.97 34.4368C101.943 34.4368 102.7 34.2275 103.243 33.8112C103.785 33.3949 104.055 32.836 104.055 32.1391C104.055 31.5181 103.832 30.9948 103.385 30.5705C102.941 30.1461 102.198 29.7517 101.161 29.3871C98.3396 28.3878 96.9298 26.9238 96.9298 24.9987C96.9298 23.7406 97.424 22.7091 98.4134 21.9064C99.3993 21.1025 100.715 20.7012 102.359 20.7012C103.826 20.7012 105.044 20.9438 106.017 21.428L105.371 23.4267C104.463 22.9575 103.436 22.7229 102.287 22.7229C101.378 22.7229 100.669 22.9356 100.16 23.3588C99.7299 23.7372 99.5143 24.1983 99.5143 24.7446C99.5143 25.3495 99.7602 25.8497 100.254 26.243C100.684 26.6064 101.465 26.9997 102.599 27.4241C103.986 27.9542 105.004 28.5741 105.66 29.2848C106.312 29.9932 106.638 30.8798 106.638 31.9378Z" fill="white"/>
<path d="M115.173 27.034H112.327V32.3918C112.327 33.7546 112.828 34.4354 113.833 34.4354C114.295 34.4354 114.678 34.3974 114.98 34.3215L115.052 36.1834C114.543 36.3639 113.873 36.4548 113.044 36.4548C112.024 36.4548 111.227 36.1592 110.652 35.5693C110.079 34.9782 109.791 33.9869 109.791 32.5942V27.0317H108.095V25.1917H109.791V23.1711L112.327 22.4443V25.1917H115.173V27.034Z" fill="white"/>
<path d="M128.021 30.621C128.021 32.3173 127.51 33.7099 126.49 34.7989C125.42 35.9202 124.001 36.4791 122.232 36.4791C120.526 36.4791 119.169 35.942 118.156 34.8679C117.144 33.7938 116.637 32.438 116.637 30.8038C116.637 29.0938 117.158 27.6931 118.203 26.6041C119.246 25.5139 120.653 24.9688 122.423 24.9688C124.128 24.9688 125.5 25.5058 126.536 26.5811C127.527 27.6241 128.021 28.9708 128.021 30.621ZM125.342 30.7003C125.342 29.6826 125.113 28.8098 124.649 28.0818C124.108 27.2009 123.334 26.7616 122.331 26.7616C121.293 26.7616 120.505 27.2021 119.963 28.0818C119.499 28.8109 119.27 29.6975 119.27 30.7463C119.27 31.7641 119.499 32.6369 119.963 33.3637C120.521 34.2446 121.301 34.6839 122.308 34.6839C123.294 34.6839 124.068 34.2354 124.626 33.3407C125.102 32.599 125.342 31.7169 125.342 30.7003Z" fill="white"/>
<path d="M136.387 27.3506C136.132 27.3057 135.859 27.2827 135.573 27.2827C134.665 27.2827 133.963 27.6082 133.469 28.2602C133.039 28.8352 132.823 29.562 132.823 30.4395V36.2297H130.242L130.266 28.6696C130.266 27.3977 130.234 26.2397 130.169 25.1955H132.418L132.513 27.3069H132.584C132.857 26.5812 133.287 25.997 133.875 25.5589C134.451 25.1644 135.072 24.9678 135.742 24.9678C135.98 24.9678 136.196 24.9839 136.387 25.0126V27.3506Z" fill="white"/>
<path d="M147.962 30.1901C147.962 30.6294 147.932 30.9997 147.868 31.3022H140.121C140.152 32.3924 140.526 33.2261 141.245 33.8011C141.898 34.3152 142.742 34.5728 143.779 34.5728C144.926 34.5728 145.972 34.3991 146.913 34.0507L147.318 35.7527C146.218 36.2081 144.92 36.4346 143.422 36.4346C141.62 36.4346 140.205 35.9309 139.176 34.9247C138.149 33.9184 137.634 32.5672 137.634 30.8721C137.634 29.208 138.112 27.8223 139.07 26.7171C140.073 25.5372 141.428 24.9473 143.133 24.9473C144.808 24.9473 146.076 25.5372 146.938 26.7171C147.619 27.6544 147.962 28.8136 147.962 30.1901ZM145.5 29.5542C145.517 28.8274 145.349 28.1995 144.999 27.6693C144.552 26.9874 143.865 26.647 142.941 26.647C142.097 26.647 141.41 26.9793 140.886 27.6463C140.456 28.1765 140.2 28.8124 140.121 29.553H145.5V29.5542Z" fill="white"/>
<path d="M59.3987 11.5105C59.3987 12.864 58.9711 13.8829 58.1173 14.5672C57.3264 15.1985 56.2025 15.5148 54.7468 15.5148C54.025 15.5148 53.4073 15.4849 52.8901 15.4251V8.02945C53.5647 7.92595 54.2914 7.87305 55.0762 7.87305C56.4629 7.87305 57.5081 8.1594 58.213 8.7321C59.0026 9.37955 59.3987 10.3053 59.3987 11.5105ZM58.0604 11.5438C58.0604 10.6664 57.8157 9.99365 57.3264 9.52445C56.8372 9.0564 56.1226 8.8218 55.1816 8.8218C54.7819 8.8218 54.4416 8.8471 54.1594 8.9V14.5223C54.3156 14.5453 54.6014 14.5557 55.0169 14.5557C55.9882 14.5557 56.7378 14.2992 57.2659 13.7863C57.7939 13.2734 58.0604 12.5259 58.0604 11.5438Z" fill="white"/>
<path d="M66.505 12.6926C66.505 13.5264 66.2543 14.2095 65.7529 14.7454C65.2273 15.2962 64.5309 15.5711 63.6613 15.5711C62.8233 15.5711 62.1559 15.3077 61.6582 14.7787C61.1616 14.2509 60.9133 13.585 60.9133 12.7823C60.9133 11.9428 61.1689 11.254 61.6824 10.7192C62.1959 10.1845 62.8862 9.9165 63.7558 9.9165C64.5939 9.9165 65.2673 10.1799 65.7772 10.7077C66.2616 11.2206 66.505 11.883 66.505 12.6926ZM65.1886 12.7317C65.1886 12.2315 65.0747 11.8025 64.8482 11.4449C64.5818 11.0125 64.2027 10.7963 63.7098 10.7963C63.1999 10.7963 62.8124 11.0125 62.5459 11.4449C62.3182 11.8025 62.2056 12.2384 62.2056 12.7536C62.2056 13.2538 62.3194 13.6828 62.5459 14.0404C62.8208 14.4728 63.2035 14.689 63.6977 14.689C64.1821 14.689 64.5624 14.4694 64.8361 14.0289C65.0711 13.6644 65.1886 13.232 65.1886 12.7317Z" fill="white"/>
<path d="M76.0111 10.0269L74.2248 15.448H73.0621L72.3221 13.0939C72.1344 12.5063 71.9818 11.9221 71.8631 11.3425H71.8401C71.7299 11.9382 71.5773 12.5212 71.3811 13.0939L70.5951 15.448H69.4191L67.7393 10.0269H69.0436L69.6891 12.604C69.8454 13.2135 69.9738 13.7943 70.0767 14.344H70.0997C70.1942 13.8909 70.3504 13.3136 70.5708 12.6155L71.3811 10.028H72.4154L73.1917 12.5603C73.3794 13.1779 73.532 13.7724 73.6495 14.3451H73.6846C73.7706 13.7874 73.9002 13.1928 74.0722 12.5603L74.7649 10.028H76.0111V10.0269Z" fill="white"/>
<path d="M82.6029 15.448H81.3337V12.343C81.3337 11.3862 80.951 10.9078 80.1831 10.9078C79.8065 10.9078 79.5025 11.0389 79.2663 11.3023C79.0326 11.5656 78.9139 11.8761 78.9139 12.2315V15.4469H77.6446V11.576C77.6446 11.0999 77.6289 10.5835 77.5986 10.0246H78.7141L78.7734 10.8722H78.8085C78.9563 10.6088 79.1767 10.3915 79.4662 10.2178C79.8101 10.0154 80.1952 9.91309 80.6167 9.91309C81.1496 9.91309 81.5929 10.0764 81.9453 10.4041C82.3837 10.8055 82.6029 11.4046 82.6029 12.2004V15.448V15.448Z" fill="white"/>
<path d="M86.0918 15.4481H84.8237V7.53955H86.0918V15.4481Z" fill="white"/>
<path d="M93.5688 12.6926C93.5688 13.5264 93.3181 14.2095 92.8167 14.7454C92.291 15.2962 91.5934 15.5711 90.7251 15.5711C89.8858 15.5711 89.2184 15.3077 88.7219 14.7787C88.2253 14.2509 87.9771 13.585 87.9771 12.7823C87.9771 11.9428 88.2326 11.254 88.7461 10.7192C89.2596 10.1845 89.95 9.9165 90.8183 9.9165C91.6576 9.9165 92.3298 10.1799 92.8409 10.7077C93.3253 11.2206 93.5688 11.883 93.5688 12.6926ZM92.2511 12.7317C92.2511 12.2315 92.1372 11.8025 91.9107 11.4449C91.6455 11.0125 91.2652 10.7963 90.7735 10.7963C90.2624 10.7963 89.8749 11.0125 89.6096 11.4449C89.3819 11.8025 89.2693 12.2384 89.2693 12.7536C89.2693 13.2538 89.3832 13.6828 89.6096 14.0404C89.8846 14.4728 90.2673 14.689 90.7614 14.689C91.2458 14.689 91.6249 14.4694 91.8986 14.0289C92.1348 13.6644 92.2511 13.232 92.2511 12.7317Z" fill="white"/>
<path d="M99.7295 15.448H98.5898L98.4954 14.8236H98.4602C98.0703 15.3215 97.5144 15.5711 96.7925 15.5711C96.2536 15.5711 95.8176 15.4066 95.4894 15.08C95.1915 14.7833 95.0425 14.4142 95.0425 13.976C95.0425 13.3136 95.3331 12.8088 95.9181 12.4592C96.5019 12.1096 97.323 11.9382 98.3803 11.9463V11.8451C98.3803 11.1309 97.9855 10.7744 97.1946 10.7744C96.6315 10.7744 96.1349 10.909 95.7062 11.1758L95.4482 10.3846C95.9787 10.0729 96.6339 9.9165 97.4066 9.9165C98.8987 9.9165 99.6471 10.664 99.6471 12.159V14.1554C99.6471 14.6971 99.675 15.1283 99.7295 15.448ZM98.4118 13.585V12.749C97.0117 12.726 96.3117 13.0905 96.3117 13.8415C96.3117 14.1244 96.3917 14.336 96.5552 14.4774C96.7187 14.6189 96.927 14.689 97.1752 14.689C97.4538 14.689 97.7142 14.6051 97.9516 14.4383C98.1902 14.2704 98.3367 14.0577 98.3912 13.7966C98.4045 13.738 98.4118 13.6667 98.4118 13.585Z" fill="white"/>
<path d="M106.919 15.4481H105.793L105.733 14.5776H105.698C105.338 15.24 104.726 15.5712 103.865 15.5712C103.177 15.5712 102.604 15.3147 102.15 14.8018C101.695 14.2889 101.469 13.6231 101.469 12.8054C101.469 11.928 101.715 11.2173 102.209 10.6745C102.687 10.1685 103.274 9.91545 103.971 9.91545C104.738 9.91545 105.274 10.1604 105.579 10.6515H105.604V7.53955H106.874V13.9876C106.874 14.5155 106.889 15.0019 106.919 15.4481ZM105.604 13.1619V12.258C105.604 12.1016 105.592 11.9751 105.569 11.8785C105.497 11.5887 105.343 11.3449 105.11 11.1483C104.873 10.9516 104.589 10.8527 104.261 10.8527C103.787 10.8527 103.416 11.031 103.144 11.3886C102.874 11.7463 102.737 12.2028 102.737 12.7606C102.737 13.2965 102.867 13.7312 103.127 14.0658C103.402 14.4223 103.773 14.6006 104.236 14.6006C104.653 14.6006 104.986 14.4522 105.239 14.1544C105.484 13.8795 105.604 13.5483 105.604 13.1619Z" fill="white"/>
<path d="M117.758 12.6926C117.758 13.5264 117.508 14.2095 117.006 14.7454C116.481 15.2962 115.786 15.5711 114.915 15.5711C114.078 15.5711 113.411 15.3077 112.912 14.7787C112.415 14.2509 112.167 13.585 112.167 12.7823C112.167 11.9428 112.422 11.254 112.936 10.7192C113.449 10.1845 114.14 9.9165 115.01 9.9165C115.847 9.9165 116.522 10.1799 117.031 10.7077C117.515 11.2206 117.758 11.883 117.758 12.6926ZM116.443 12.7317C116.443 12.2315 116.329 11.8025 116.103 11.4449C115.835 11.0125 115.457 10.7963 114.963 10.7963C114.455 10.7963 114.067 11.0125 113.799 11.4449C113.572 11.8025 113.459 12.2384 113.459 12.7536C113.459 13.2538 113.573 13.6828 113.799 14.0404C114.074 14.4728 114.457 14.689 114.951 14.689C115.436 14.689 115.817 14.4694 116.091 14.0289C116.324 13.6644 116.443 13.232 116.443 12.7317Z" fill="white"/>
<path d="M124.594 15.448H123.326V12.343C123.326 11.3862 122.944 10.9078 122.175 10.9078C121.798 10.9078 121.494 11.0389 121.259 11.3023C121.024 11.5656 120.907 11.8761 120.907 12.2315V15.4469H119.636V11.576C119.636 11.0999 119.622 10.5835 119.591 10.0246H120.706L120.765 10.8722H120.8C120.949 10.6088 121.169 10.3915 121.458 10.2178C121.803 10.0154 122.187 9.91309 122.609 9.91309C123.141 9.91309 123.584 10.0764 123.937 10.4041C124.376 10.8055 124.594 11.4046 124.594 12.2004V15.448V15.448Z" fill="white"/>
<path d="M133.127 10.9296H131.73V13.5631C131.73 14.2324 131.978 14.5671 132.47 14.5671C132.698 14.5671 132.886 14.5487 133.035 14.5107L133.068 15.425C132.817 15.5147 132.488 15.5595 132.082 15.5595C131.581 15.5595 131.191 15.4146 130.909 15.1248C130.625 14.835 130.485 14.3474 130.485 13.6632V10.9296H129.65V10.0269H130.485V9.03326L131.729 8.67676V10.0257H133.126V10.9296H133.127Z" fill="white"/>
<path d="M139.878 15.4481H138.607V12.3661C138.607 11.3944 138.225 10.9079 137.458 10.9079C136.869 10.9079 136.467 11.1897 136.247 11.7532C136.209 11.8716 136.187 12.0165 136.187 12.1867V15.447H134.919V7.53955H136.187V10.8067H136.212C136.611 10.2122 137.184 9.91545 137.927 9.91545C138.452 9.91545 138.887 10.0788 139.232 10.4065C139.662 10.8148 139.878 11.422 139.878 12.2247V15.4481V15.4481Z" fill="white"/>
<path d="M146.781 12.4811C146.781 12.6973 146.764 12.879 146.734 13.0273H142.927C142.944 13.5632 143.126 13.9715 143.478 14.2544C143.801 14.5074 144.216 14.6339 144.725 14.6339C145.288 14.6339 145.801 14.5488 146.264 14.3774L146.463 15.2146C145.921 15.4377 145.284 15.5493 144.547 15.5493C143.662 15.5493 142.966 15.302 142.462 14.8075C141.956 14.313 141.705 13.6495 141.705 12.8169C141.705 11.9993 141.939 11.3184 142.41 10.7756C142.902 10.196 143.567 9.90625 144.406 9.90625C145.227 9.90625 145.851 10.196 146.272 10.7756C146.613 11.2356 146.781 11.8049 146.781 12.4811ZM145.57 12.1694C145.58 11.8118 145.496 11.5036 145.324 11.2437C145.104 10.9091 144.768 10.7411 144.314 10.7411C143.9 10.7411 143.562 10.9044 143.304 11.2322C143.093 11.4932 142.969 11.8049 142.927 12.1694H145.57Z" fill="white"/>
</svg>
