<svg width="164" height="46" viewBox="0 0 164 46" fill="none" xmlns="http://www.w3.org/2000/svg">
<path d="M157.944 46H6.55556C3.22651 46 0.5 43.4111 0.5 40.25V5.75C0.5 2.58894 3.22651 2.43107e-06 6.55556 2.43107e-06H157.944C161.273 2.43107e-06 164 2.58894 164 5.75V40.25C164 43.4111 161.273 46 157.944 46Z" fill="black"/>
<path d="M157.944 0.921438C160.748 0.921438 163.03 3.08775 163.03 5.75V40.25C163.03 42.9123 160.748 45.0786 157.944 45.0786H6.55556C3.75183 45.0786 1.4704 42.9123 1.4704 40.25V5.75C1.4704 3.08775 3.75183 0.921438 6.55556 0.921438H157.944ZM157.944 2.43107e-06H6.55556C3.22651 2.43107e-06 0.5 2.58894 0.5 5.75V40.25C0.5 43.4111 3.22651 46 6.55556 46H157.944C161.273 46 164 43.4111 164 40.25V5.75C164 2.58894 161.273 2.43107e-06 157.944 2.43107e-06Z" fill="#A6A6A6"/>
<path d="M57.9277 11.7801C57.9277 12.7403 57.6249 13.5094 57.0284 14.083C56.3426 14.7629 55.4494 15.105 54.3549 15.105C53.3088 15.105 52.4156 14.7572 51.6829 14.0715C50.9486 13.3757 50.5823 12.5218 50.5823 11.4998C50.5823 10.4777 50.9486 9.62384 51.6829 8.93384C52.4156 8.24241 53.3088 7.89453 54.3549 7.89453C54.8757 7.89453 55.3722 7.99659 55.8461 8.18634C56.3184 8.37753 56.7029 8.63628 56.9815 8.95541L56.3487 9.56203C55.8627 9.01722 55.2012 8.74841 54.3549 8.74841C53.5919 8.74841 52.9303 9.00141 52.3687 9.51172C51.8131 10.0235 51.5345 10.6862 51.5345 11.4998C51.5345 12.3134 51.8131 12.9818 52.3687 13.4936C52.9303 13.9982 53.5919 14.2569 54.3549 14.2569C55.1648 14.2569 55.8461 13.9982 56.3835 13.4878C56.7378 13.15 56.9391 12.6843 56.9921 12.0892H54.3549V11.2583H57.8732C57.9156 11.438 57.9277 11.6119 57.9277 11.7801V11.7801Z" fill="white" stroke="white" stroke-width="0.16" stroke-miterlimit="10"/>
<path d="M63.5094 8.89942H60.2046V11.0844H63.184V11.9153H60.2046V14.1003H63.5094V14.947H59.269V8.05273H63.5094V8.89942Z" fill="white" stroke="white" stroke-width="0.16" stroke-miterlimit="10"/>
<path d="M67.4488 14.947H66.5132V8.89942H64.4861V8.05273H69.4774V8.89942H67.4488V14.947V14.947Z" fill="white" stroke="white" stroke-width="0.16" stroke-miterlimit="10"/>
<path d="M73.0896 14.947V8.05273H74.0237V14.947H73.0896Z" fill="white" stroke="white" stroke-width="0.16" stroke-miterlimit="10"/>
<path d="M78.1638 14.947H77.2358V8.89942H75.2012V8.05273H80.1985V8.89942H78.1638V14.947Z" fill="white" stroke="white" stroke-width="0.16" stroke-miterlimit="10"/>
<path d="M89.6485 14.06C88.9324 14.7572 88.0453 15.105 86.9871 15.105C85.9228 15.105 85.0357 14.7572 84.3196 14.06C83.605 13.3642 83.2493 12.5103 83.2493 11.4998C83.2493 10.4892 83.605 9.63534 84.3196 8.93959C85.0357 8.24241 85.9228 7.89453 86.9871 7.89453C88.0392 7.89453 88.9264 8.24241 89.6424 8.94534C90.363 9.64684 90.7188 10.495 90.7188 11.4998C90.7188 12.5103 90.363 13.3642 89.6485 14.06ZM85.0114 13.4821C85.5504 13.9982 86.2059 14.2569 86.9871 14.2569C87.7622 14.2569 88.4237 13.9982 88.9566 13.4821C89.4941 12.966 89.7666 12.3033 89.7666 11.4998C89.7666 10.6962 89.4941 10.0335 88.9566 9.51747C88.4237 9.00141 87.7622 8.74266 86.9871 8.74266C86.2059 8.74266 85.5504 9.00141 85.0114 9.51747C84.474 10.0335 84.2015 10.6962 84.2015 11.4998C84.2015 12.3033 84.474 12.966 85.0114 13.4821V13.4821Z" fill="white" stroke="white" stroke-width="0.16" stroke-miterlimit="10"/>
<path d="M92.031 14.947V8.05273H93.1664L96.6968 13.4146H96.7377L96.6968 12.0892V8.05273H97.6309V14.947H96.6559L92.959 9.32061H92.9181L92.959 10.6517V14.947H92.031V14.947Z" fill="white" stroke="white" stroke-width="0.16" stroke-miterlimit="10"/>
<path d="M83.0189 25.0152C80.1743 25.0152 77.8505 27.0708 77.8505 29.907C77.8505 32.7202 80.1743 34.7974 83.0189 34.7974C85.8696 34.7974 88.1934 32.7202 88.1934 29.907C88.1934 27.0708 85.8696 25.0152 83.0189 25.0152ZM83.0189 32.8712C81.4581 32.8712 80.1153 31.6478 80.1153 29.907C80.1153 28.1432 81.4581 26.9415 83.0189 26.9415C84.5797 26.9415 85.9286 28.1432 85.9286 29.907C85.9286 31.6478 84.5797 32.8712 83.0189 32.8712V32.8712ZM71.7419 25.0152C68.8913 25.0152 66.5735 27.0708 66.5735 29.907C66.5735 32.7202 68.8913 34.7974 71.7419 34.7974C74.5911 34.7974 76.9104 32.7202 76.9104 29.907C76.9104 27.0708 74.5911 25.0152 71.7419 25.0152ZM71.7419 32.8712C70.1796 32.8712 68.8323 31.6478 68.8323 29.907C68.8323 28.1432 70.1796 26.9415 71.7419 26.9415C73.3028 26.9415 74.6456 28.1432 74.6456 29.907C74.6456 31.6478 73.3028 32.8712 71.7419 32.8712ZM58.3228 26.5145V28.5932H63.5503C63.3974 29.7547 62.9886 30.6085 62.3619 31.2037C61.5989 31.9224 60.4105 32.7202 58.3228 32.7202C55.1058 32.7202 52.5867 30.2549 52.5867 27.2002C52.5867 24.1455 55.1058 21.6802 58.3228 21.6802C60.0623 21.6802 61.3279 22.3257 62.262 23.1623L63.8046 21.6975C62.4981 20.513 60.7602 19.603 58.3228 19.603C53.9114 19.603 50.2039 23.0113 50.2039 27.2002C50.2039 31.3891 53.9114 34.7974 58.3228 34.7974C60.7072 34.7974 62.4981 34.0557 63.9061 32.6642C65.3488 31.2942 65.7984 29.368 65.7984 27.8126C65.7984 27.3296 65.756 26.8854 65.6803 26.5145H58.3228ZM113.195 28.126C112.77 27.032 111.457 25.0152 108.784 25.0152C106.134 25.0152 103.929 26.9975 103.929 29.907C103.929 32.6469 106.112 34.7974 109.038 34.7974C111.404 34.7974 112.77 33.4275 113.331 32.6297L111.575 31.5185C110.99 32.3321 110.192 32.8712 109.038 32.8712C107.892 32.8712 107.07 32.3723 106.543 31.3891L113.433 28.6823L113.195 28.126V28.126ZM106.171 29.7547C106.112 27.8687 107.713 26.9027 108.861 26.9027C109.76 26.9027 110.523 27.3296 110.778 27.9405L106.171 29.7547V29.7547ZM100.571 34.4998H102.836V20.1248H100.571V34.4998ZM96.8619 26.1048H96.7862C96.2775 25.5327 95.3071 25.0152 94.0779 25.0152C91.4982 25.0152 89.1396 27.1657 89.1396 29.9228C89.1396 32.6642 91.4982 34.7974 94.0779 34.7974C95.3071 34.7974 96.2775 34.2756 96.7862 33.6862H96.8619V34.3877C96.8619 36.2579 95.8097 37.2627 94.1127 37.2627C92.729 37.2627 91.8706 36.314 91.5164 35.5162L89.5468 36.2967C90.1145 37.5933 91.6178 39.189 94.1127 39.189C96.768 39.189 99.0086 37.7055 99.0086 34.0959V25.3128H96.8619V26.1048V26.1048ZM94.2716 32.8712C92.7108 32.8712 91.4043 31.6306 91.4043 29.9228C91.4043 28.1993 92.7108 26.9415 94.2716 26.9415C95.8097 26.9415 97.0224 28.1993 97.0224 29.9228C97.0224 31.6306 95.8097 32.8712 94.2716 32.8712V32.8712ZM123.799 20.1248H118.382V34.4998H120.641V29.0532H123.799C126.307 29.0532 128.767 27.3296 128.767 24.5883C128.767 21.8484 126.301 20.1248 123.799 20.1248V20.1248ZM123.858 27.0536H120.641V22.1244H123.858C125.544 22.1244 126.507 23.4541 126.507 24.5883C126.507 25.7009 125.544 27.0536 123.858 27.0536ZM137.82 24.9879C136.188 24.9879 134.491 25.6722 133.793 27.1887L135.798 27.9865C136.229 27.1887 137.022 26.93 137.861 26.93C139.033 26.93 140.221 27.5984 140.239 28.7786V28.9295C139.831 28.7053 138.956 28.3732 137.879 28.3732C135.72 28.3732 133.521 29.5017 133.521 31.6076C133.521 33.5338 135.289 34.7744 137.277 34.7744C138.797 34.7744 139.635 34.1232 140.162 33.3657H140.239V34.4768H142.421V28.9626C142.421 26.4139 140.416 24.9879 137.82 24.9879ZM137.548 32.8654C136.809 32.8654 135.779 32.5175 135.779 31.6478C135.779 30.5352 137.063 30.1083 138.174 30.1083C139.169 30.1083 139.635 30.3167 140.239 30.5913C140.062 31.9224 138.856 32.8654 137.548 32.8654V32.8654ZM150.369 25.3027L147.772 31.5343H147.695L145.011 25.3027H142.575L146.608 34.0111L144.307 38.8569H146.667L152.882 25.3027H150.369V25.3027ZM130.008 34.4998H132.273V20.1248H130.008V34.4998Z" fill="white"/>
<path d="M13.1381 8.66981C12.7823 9.02343 12.5764 9.574 12.5764 10.287V35.7192C12.5764 36.4322 12.7823 36.9828 13.1381 37.3364L13.2259 37.4141L28.2346 23.1684V22.8321L13.2259 8.58643L13.1381 8.66981Z" fill="url(#paint0_linear_1391_5801)"/>
<path d="M33.232 27.9189L28.2346 23.168V22.8316L33.238 18.0807L33.35 18.1425L39.2754 21.3438C40.9664 22.2523 40.9664 23.7473 39.2754 24.6616L33.35 27.8571L33.232 27.9189V27.9189Z" fill="url(#paint1_linear_1391_5801)"/>
<path d="M33.3501 27.8573L28.2347 23L13.1382 37.3362C13.6998 37.8968 14.6157 37.9644 15.6573 37.4038L33.3501 27.8573" fill="url(#paint2_linear_1391_5801)"/>
<path d="M33.3501 18.1427L15.6573 8.59625C14.6157 8.04138 13.6998 8.10894 13.1382 8.66956L28.2347 23L33.3501 18.1427Z" fill="url(#paint3_linear_1391_5801)"/>
<defs>
<linearGradient id="paint0_linear_1391_5801" x1="26.902" y1="35.9841" x2="7.62805" y2="15.686" gradientUnits="userSpaceOnUse">
<stop stop-color="#00A0FF"/>
<stop offset="0.0066" stop-color="#00A1FF"/>
<stop offset="0.2601" stop-color="#00BEFF"/>
<stop offset="0.5122" stop-color="#00D2FF"/>
<stop offset="0.7604" stop-color="#00DFFF"/>
<stop offset="1" stop-color="#00E3FF"/>
</linearGradient>
<linearGradient id="paint1_linear_1391_5801" x1="41.4774" y1="22.9982" x2="12.1723" y2="22.9982" gradientUnits="userSpaceOnUse">
<stop stop-color="#FFE000"/>
<stop offset="0.4087" stop-color="#FFBD00"/>
<stop offset="0.7754" stop-color="#FFA500"/>
<stop offset="1" stop-color="#FF9C00"/>
</linearGradient>
<linearGradient id="paint2_linear_1391_5801" x1="30.5685" y1="20.3595" x2="4.43149" y2="-7.1664" gradientUnits="userSpaceOnUse">
<stop stop-color="#FF3A44"/>
<stop offset="1" stop-color="#C31162"/>
</linearGradient>
<linearGradient id="paint3_linear_1391_5801" x1="9.33808" y1="45.7974" x2="21.0094" y2="33.5059" gradientUnits="userSpaceOnUse">
<stop stop-color="#32A071"/>
<stop offset="0.0685" stop-color="#2DA771"/>
<stop offset="0.4762" stop-color="#15CF74"/>
<stop offset="0.8009" stop-color="#06E775"/>
<stop offset="1" stop-color="#00F076"/>
</linearGradient>
</defs>
</svg>
