<svg width="49" height="38" viewBox="0 0 49 38" fill="none" xmlns="http://www.w3.org/2000/svg">
<path d="M42.2188 23.8438C42.5469 23.8438 42.875 24.1719 42.875 24.5C42.875 24.9102 42.5469 25.1562 42.2188 25.1562H30.4062C29.9961 25.1562 29.75 24.9102 29.75 24.5C29.75 24.1719 29.9961 23.8438 30.4062 23.8438H42.2188ZM15.3125 19.25C12.3594 19.25 10.0625 16.9531 10.0625 14C10.0625 11.1289 12.3594 8.75 15.3125 8.75C18.1836 8.75 20.5625 11.1289 20.5625 14C20.5625 16.9531 18.1836 19.25 15.3125 19.25ZM15.3125 10.0625C13.0977 10.0625 11.375 11.8672 11.375 14C11.375 16.2148 13.0977 17.9375 15.3125 17.9375C17.4453 17.9375 19.25 16.2148 19.25 14C19.25 11.8672 17.4453 10.0625 15.3125 10.0625ZM42.875 0.875C45.7461 0.875 48.125 3.25391 48.125 6.125V32.375C48.125 35.3281 45.7461 37.625 42.875 37.625H6.125C3.17188 37.625 0.875 35.3281 0.875 32.375V6.125C0.875 3.25391 3.17188 0.875 6.125 0.875H42.875ZM46.8125 32.375V6.125C46.8125 3.99219 45.0078 2.1875 42.875 2.1875H6.125C3.91016 2.1875 2.1875 3.99219 2.1875 6.125V32.375C2.1875 34.5898 3.91016 36.3125 6.125 36.3125H42.875C45.0078 36.3125 46.8125 34.5898 46.8125 32.375ZM42.2188 18.5938C42.5469 18.5938 42.875 18.9219 42.875 19.25C42.875 19.6602 42.5469 19.9062 42.2188 19.9062H30.4062C29.9961 19.9062 29.75 19.6602 29.75 19.25C29.75 18.9219 29.9961 18.5938 30.4062 18.5938H42.2188ZM42.2188 13.3438C42.5469 13.3438 42.875 13.6719 42.875 14C42.875 14.4102 42.5469 14.6562 42.2188 14.6562H30.4062C29.9961 14.6562 29.75 14.4102 29.75 14C29.75 13.6719 29.9961 13.3438 30.4062 13.3438H42.2188ZM17.9375 21.875C21.5469 21.875 24.5 24.8281 24.5 28.4375V29.0938C24.5 29.5039 24.1719 29.75 23.8438 29.75C23.4336 29.75 23.1875 29.5039 23.1875 29.0938V28.4375C23.1875 25.5664 20.8086 23.1875 17.9375 23.1875H12.6875C9.73438 23.1875 7.4375 25.5664 7.4375 28.4375V29.0938C7.4375 29.5039 7.10938 29.75 6.78125 29.75C6.37109 29.75 6.125 29.5039 6.125 29.0938V28.4375C6.125 24.8281 8.99609 21.875 12.6875 21.875H17.9375Z" fill="#83898C"/>
</svg>
