<svg width="27" height="22" viewBox="0 0 27 22" fill="none" xmlns="http://www.w3.org/2000/svg">
<path d="M24 2.27777H3C2.15625 2.27777 1.5 2.9809 1.5 3.77777V18.7778C1.5 19.6215 2.15625 20.2778 3 20.2778H24C24.7969 20.2778 25.5 19.6215 25.5 18.7778V3.77777C25.5 2.9809 24.7969 2.27777 24 2.27777ZM3 0.777771H24C25.6406 0.777771 27 2.13715 27 3.77777V18.7778C27 20.4653 25.6406 21.7778 24 21.7778H3C1.3125 21.7778 0 20.4653 0 18.7778V3.77777C0 2.13715 1.3125 0.777771 3 0.777771ZM4.5 13.5278C4.5 13.1528 4.82812 12.7778 5.25 12.7778H21.75C22.125 12.7778 22.5 13.1528 22.5 13.5278C22.5 13.9496 22.125 14.2778 21.75 14.2778H5.25C4.82812 14.2778 4.5 13.9496 4.5 13.5278ZM4.5 16.5278C4.5 16.1528 4.82812 15.7778 5.25 15.7778H8.25C8.625 15.7778 9 16.1528 9 16.5278C9 16.9496 8.625 17.2778 8.25 17.2778H5.25C4.82812 17.2778 4.5 16.9496 4.5 16.5278ZM11.25 15.7778H17.25C17.625 15.7778 18 16.1528 18 16.5278C18 16.9496 17.625 17.2778 17.25 17.2778H11.25C10.8281 17.2778 10.5 16.9496 10.5 16.5278C10.5 16.1528 10.8281 15.7778 11.25 15.7778ZM18.75 6.02777C18.5156 6.02777 18.375 6.21527 18.375 6.40277V8.65277C18.375 8.88715 18.5156 9.02777 18.75 9.02777H21.75C21.9375 9.02777 22.125 8.88715 22.125 8.65277V6.40277C22.125 6.21527 21.9375 6.02777 21.75 6.02777H18.75ZM16.875 6.40277C16.875 5.37152 17.6719 4.52777 18.75 4.52777H21.75C22.7812 4.52777 23.625 5.37152 23.625 6.40277V8.65277C23.625 9.7309 22.7812 10.5278 21.75 10.5278H18.75C17.6719 10.5278 16.875 9.7309 16.875 8.65277V6.40277Z" fill="#0067A1"/>
</svg>
