<svg width="49" height="38" viewBox="0 0 49 38" fill="none" xmlns="http://www.w3.org/2000/svg">
<path d="M8.75 27.7812C8.75 27.4531 8.99609 27.125 9.40625 27.125H15.9688C16.2969 27.125 16.625 27.4531 16.625 27.7812C16.625 28.1914 16.2969 28.4375 15.9688 28.4375H9.40625C8.99609 28.4375 8.75 28.1914 8.75 27.7812ZM19.25 27.7812C19.25 27.4531 19.4961 27.125 19.9062 27.125H31.7188C32.0469 27.125 32.375 27.4531 32.375 27.7812C32.375 28.1914 32.0469 28.4375 31.7188 28.4375H19.9062C19.4961 28.4375 19.25 28.1914 19.25 27.7812ZM0.875 6.125C0.875 3.25391 3.17188 0.875 6.125 0.875H42.875C45.7461 0.875 48.125 3.25391 48.125 6.125V32.375C48.125 35.3281 45.7461 37.625 42.875 37.625H6.125C3.17188 37.625 0.875 35.3281 0.875 32.375V6.125ZM2.1875 6.125V32.375C2.1875 34.5898 3.91016 36.3125 6.125 36.3125H42.875C45.0078 36.3125 46.8125 34.5898 46.8125 32.375V6.125C46.8125 3.99219 45.0078 2.1875 42.875 2.1875H6.125C3.91016 2.1875 2.1875 3.99219 2.1875 6.125Z" fill="#83898C"/>
</svg>
