<svg width="49" height="38" viewBox="0 0 49 38" fill="none" xmlns="http://www.w3.org/2000/svg">
<path d="M8.75 22.5312C8.75 22.2031 8.99609 21.875 9.40625 21.875H39.5938C39.9219 21.875 40.25 22.2031 40.25 22.5312C40.25 22.9414 39.9219 23.1875 39.5938 23.1875H9.40625C8.99609 23.1875 8.75 22.9414 8.75 22.5312ZM8.75 27.7812C8.75 27.4531 8.99609 27.125 9.40625 27.125H15.9688C16.2969 27.125 16.625 27.4531 16.625 27.7812C16.625 28.1914 16.2969 28.4375 15.9688 28.4375H9.40625C8.99609 28.4375 8.75 28.1914 8.75 27.7812ZM31.7188 27.125C32.0469 27.125 32.375 27.4531 32.375 27.7812C32.375 28.1914 32.0469 28.4375 31.7188 28.4375H19.9062C19.4961 28.4375 19.25 28.1914 19.25 27.7812C19.25 27.4531 19.4961 27.125 19.9062 27.125H31.7188ZM32.375 9.40625C32.375 7.60156 33.7695 6.125 35.6562 6.125H39.5938C41.3984 6.125 42.875 7.60156 42.875 9.40625V12.0312C42.875 13.918 41.3984 15.3125 39.5938 15.3125H35.6562C33.7695 15.3125 32.375 13.918 32.375 12.0312V9.40625ZM33.6875 9.40625V12.0312C33.6875 13.1797 34.5078 14 35.6562 14H39.5938C40.6602 14 41.5625 13.1797 41.5625 12.0312V9.40625C41.5625 8.33984 40.6602 7.4375 39.5938 7.4375H35.6562C34.5078 7.4375 33.6875 8.33984 33.6875 9.40625ZM42.875 0.875C45.7461 0.875 48.125 3.25391 48.125 6.125V32.375C48.125 35.3281 45.7461 37.625 42.875 37.625H6.125C3.17188 37.625 0.875 35.3281 0.875 32.375V6.125C0.875 3.25391 3.17188 0.875 6.125 0.875H42.875ZM42.875 2.1875H6.125C3.91016 2.1875 2.1875 3.99219 2.1875 6.125V32.375C2.1875 34.5898 3.91016 36.3125 6.125 36.3125H42.875C45.0078 36.3125 46.8125 34.5898 46.8125 32.375V6.125C46.8125 3.99219 45.0078 2.1875 42.875 2.1875Z" fill="#83898C"/>
</svg>
