<svg width="25" height="22" viewBox="0 0 25 22" fill="none" xmlns="http://www.w3.org/2000/svg">
<path d="M6.5 12.125C6.5 13.2031 5.65625 14 4.625 14H2.375C1.29688 14 0.5 13.2031 0.5 12.125V2.375C0.5 1.34375 1.29688 0.5 2.375 0.5H4.625C5.65625 0.5 6.5 1.34375 6.5 2.375V12.125ZM5 12.125V2.375C5 2.1875 4.8125 2 4.625 2H2.375C2.14062 2 2 2.1875 2 2.375V12.125C2 12.3594 2.14062 12.5 2.375 12.5H4.625C4.8125 12.5 5 12.3594 5 12.125ZM22.8594 10.0625C23.8438 10.5312 24.5 11.5156 24.5 12.6406C24.5 14.2344 23.1875 15.5 21.5938 15.5H16.8125C17.375 16.8125 17.6562 18.0312 17.6562 18.6875C17.6562 20.0938 16.5781 21.5 14.75 21.5C12.8281 21.5 12.4062 20.1406 11.9844 18.9219C10.6719 14.9375 8 14.3281 8 13.25C8 12.8281 8.32812 12.5 8.75 12.5C8.9375 12.5 9.125 12.5938 9.26562 12.7344C11.7031 15.2188 12.4062 15.3594 13.4375 18.5C13.8594 19.8125 14 20 14.75 20C15.7344 20 16.1562 19.25 16.2031 18.6875C16.2031 18.2188 15.7812 16.625 14.9844 15.125C14.8906 15.0312 14.8906 14.8906 14.8906 14.7969C14.8906 14.3281 15.1719 14 15.5938 14H21.5938C22.3438 14 23 13.3906 23 12.6406C23 11.9375 22.3906 11.3281 21.6875 11.2812C21.3125 11.2344 20.9844 10.9062 20.9844 10.5312C20.9844 9.96875 21.5469 9.92188 21.5469 9.07812C21.5469 8.42188 21.0781 7.85938 20.4219 7.71875C20.1406 7.67188 19.8125 7.4375 19.8125 7.01562C19.8125 6.59375 20.1406 6.5 20.1406 5.89062C20.1406 4.4375 18.6406 4.85938 18.6406 3.875C18.6406 3.6875 18.7344 3.64062 18.7344 3.40625C18.7344 2.65625 18.0781 2 17.3281 2H14.7031C10.9062 2 9.64062 5 8.75 5.04688C8.32812 5.04688 8 4.67188 8 4.29688C8 3.5 11.0938 0.5 14.7031 0.5H17.3281C18.9219 0.5 20.2344 1.8125 20.1875 3.40625C21.0781 3.92188 21.6406 4.85938 21.6406 5.89062C21.6406 6.125 21.5938 6.35938 21.5469 6.54688C22.4375 7.0625 23.0469 8 23.0469 9.07812C23.0469 9.40625 23 9.78125 22.8594 10.0625Z" fill="#E4641C"/>
</svg>
