<svg width="25" height="22" viewBox="0 0 25 22" fill="none" xmlns="http://www.w3.org/2000/svg">
<path d="M4.625 8C5.65625 8 6.5 8.84375 6.5 9.875V19.625C6.5 20.7031 5.65625 21.5 4.625 21.5H2.375C1.29688 21.5 0.5 20.7031 0.5 19.625V9.875C0.5 8.84375 1.29688 8 2.375 8H4.625ZM5 19.625V9.875C5 9.6875 4.8125 9.5 4.625 9.5H2.375C2.14062 9.5 2 9.6875 2 9.875V19.625C2 19.8594 2.14062 20 2.375 20H4.625C4.8125 20 5 19.8594 5 19.625ZM24.5 9.40625C24.5 10.5312 23.8438 11.5156 22.8594 11.9844C23 12.2656 23.0469 12.6406 23.0469 12.9688C23.0469 14.0469 22.4375 14.9844 21.5469 15.5C21.5938 15.6875 21.6406 15.9219 21.6406 16.1562C21.6406 17.1875 21.0781 18.125 20.2344 18.6406C20.2344 20.2344 18.9219 21.5 17.3281 21.5H14.7031C11 21.5 7.95312 18.5469 8 17.75C8 17.375 8.32812 17 8.75 17C9.64062 17 10.8594 20 14.7031 20H17.3281C18.0781 20 18.7344 19.3906 18.7344 18.6406C18.7344 18.4062 18.6406 18.3594 18.6406 18.1719C18.6406 17.1875 20.1406 17.6094 20.1406 16.1562C20.1406 15.5469 19.8125 15.4531 19.8125 15.0312C19.8125 14.6094 20.1406 14.375 20.4219 14.3281C21.0781 14.1875 21.5469 13.625 21.5469 12.9688C21.5469 12.125 20.9844 12.0781 20.9844 11.5156C20.9844 11.1406 21.3125 10.8125 21.6875 10.7656C22.3906 10.7188 23 10.1094 23 9.40625C23 8.65625 22.3438 8 21.5938 8H15.5938C15.2188 8 14.8438 7.71875 14.8438 7.25C14.8438 7.15625 14.8438 7.01562 14.9375 6.92188C15.7344 5.42188 16.1562 3.82812 16.1562 3.35938C16.1562 2.79688 15.7344 2 14.75 2C14 2 13.8594 2.23438 13.4375 3.54688C12.4062 6.6875 11.7031 6.82812 9.26562 9.3125C9.125 9.45312 8.9375 9.5 8.75 9.5C8.32812 9.5 8 9.21875 8 8.75C8 7.67188 10.7188 7.0625 11.9844 3.07812C12.4062 1.90625 12.8281 0.5 14.75 0.5C16.5781 0.5 17.6562 1.95312 17.6562 3.35938C17.6562 4.01562 17.3281 5.23438 16.8125 6.5H21.5938C23.1875 6.5 24.5 7.8125 24.5 9.40625Z" fill="#E4641C"/>
</svg>
